<?xml version="1.0" encoding="UTF-8" standalone="no"?>
<!DOCTYPE svg PUBLIC "-//W3C//DTD SVG 1.1//EN" "http://www.w3.org/Graphics/SVG/1.1/DTD/svg11.dtd">
<svg width="100%" height="100%" viewBox="0 0 540 540" version="1.1" xmlns="http://www.w3.org/2000/svg" xmlns:xlink="http://www.w3.org/1999/xlink" xml:space="preserve" xmlns:serif="http://www.serif.com/" style="fill-rule:evenodd;clip-rule:evenodd;stroke-linejoin:round;stroke-miterlimit:2;">
    <g id="Emblem.Circle" transform="matrix(1.24424,0,0,1.24424,-65.9447,-65.9447)">
        <g transform="matrix(1.44079,0,0,1.44079,-214.665,-88.8227)">
            <circle cx="336.388" cy="249.046" r="150.612" style="fill:rgb(243,145,87);"/>
        </g>
        <g transform="matrix(2.48837,0,0,2.48837,-435.928,-344.507)">
            <path d="M283.691,164.981C328.931,164.981 365.661,201.71 365.661,246.951C365.661,292.192 328.931,328.922 283.691,328.922C238.45,328.922 201.72,292.192 201.72,246.951C201.72,201.71 238.45,164.981 283.691,164.981ZM283.691,169.34C326.525,169.34 361.301,204.117 361.301,246.951C361.301,289.786 326.525,324.562 283.691,324.562C240.856,324.562 206.08,289.786 206.08,246.951C206.08,204.117 240.856,169.34 283.691,169.34Z" style="fill:rgb(184,56,59);"/>
        </g>
        <g id="Demo-Emblem" serif:id="Demo Emblem">
            <g transform="matrix(0.993786,0,0,0.993786,1.67778,1.67778)">
                <path d="M291.61,160.55L332.219,133.397L336.388,181.391C323.938,172.17 307.235,164.055 291.61,160.55Z" style="fill:rgb(184,56,59);"/>
            </g>
            <g transform="matrix(0.993786,0,0,0.993786,1.67778,1.67778)">
                <path d="M204.957,183.823C271.421,191.372 328.008,220.037 376.907,265.141C376.907,265.141 377.853,201.464 314.668,170.875C257.129,143.019 204.957,183.823 204.957,183.823Z" style="fill:rgb(184,56,59);"/>
            </g>
            <g transform="matrix(0.993786,0,0,0.993786,1.67778,1.67778)">
                <path d="M163.931,249.742C163.931,249.742 162.09,256.115 161.711,259.238C161.341,262.297 161.883,269.449 161.883,269.449C193.196,272.304 222.873,280.176 251.547,294.217C312.316,323.977 309.803,329.01 337.15,353.952L352.192,339.887C352.192,339.887 335.073,331.023 347.446,306.439C359.819,281.856 372.206,283.973 372.206,283.973C372.206,283.973 362.66,253.128 287.629,217.21C232.008,190.585 193.469,197.894 193.469,197.894C193.469,197.894 209.63,206.552 193.462,236.099C178.968,262.588 163.931,249.742 163.931,249.742Z" style="fill:rgb(184,56,59);"/>
            </g>
            <g transform="matrix(1.16983,0,0,1.16983,-58.9128,-44.7994)">
                <circle cx="282.473" cy="258.402" r="24.844" style="fill:rgb(184,56,59);"/>
                <path d="M282.473,229.568C298.387,229.568 311.307,242.488 311.307,258.402C311.307,274.316 298.387,287.236 282.473,287.236C266.559,287.236 253.639,274.316 253.639,258.402C253.639,242.488 266.559,229.568 282.473,229.568ZM282.473,233.558C268.761,233.558 257.629,244.69 257.629,258.402C257.629,272.114 268.761,283.246 282.473,283.246C296.185,283.246 307.317,272.114 307.317,258.402C307.317,244.69 296.185,233.558 282.473,233.558Z" style="fill:rgb(243,145,87);"/>
            </g>
            <g transform="matrix(0.993786,0,0,0.993786,1.67778,1.67778)">
                <path d="M162.733,282.007C162.733,282.007 195.714,279.669 248.113,305C311.712,335.745 325.426,360.656 325.426,360.656L309.526,369.458C309.526,369.458 313.689,362.333 303.513,352.679C297.475,346.951 285.091,346.134 278.513,348.641C251.541,358.922 262.831,376.714 262.831,376.714L251.46,376.235C251.46,376.235 259.713,363.268 228.49,348.134C203.617,336.078 194.803,347.339 194.803,347.339L189.86,342.214C189.86,342.214 222.465,329.595 192.952,299.758C183.417,290.12 166.424,299.043 166.424,299.043C166.424,299.043 164.378,293.863 163.797,291.182C163.182,288.342 162.733,282.007 162.733,282.007Z" style="fill:rgb(184,56,59);"/>
            </g>
            <g transform="matrix(0.993786,0,0,0.993786,1.67778,1.67778)">
                <path d="M144.894,331.587L174.423,299.559C174.423,299.559 192.367,298.197 197.365,311.598C205.457,333.3 191.232,337.493 191.232,337.493L144.894,331.587Z" style="fill:rgb(184,56,59);"/>
            </g>
            <g transform="matrix(0.598519,-0.793338,0.793338,0.598519,-147.2,323.622)">
                <path d="M141.371,332.17L190.081,294.291C190.081,294.291 202.137,294.374 205.42,316.618C209.885,346.872 200.931,347.556 200.931,347.556L141.371,332.17Z" style="fill:rgb(184,56,59);"/>
            </g>
            <g transform="matrix(-0.0155605,-0.993664,0.993664,-0.0155605,-30.6996,548.501)">
                <path d="M137.937,333.82L171.224,301.663C171.224,301.663 188.577,294.268 192.054,317.829C195.532,341.389 178.876,341.531 178.876,341.531L137.937,333.82Z" style="fill:rgb(184,56,59);"/>
            </g>
            <g transform="matrix(-0.81405,-0.57003,0.57003,-0.81405,327.212,676.933)">
                <path d="M131.565,330.74L176.18,295.752C176.18,295.752 191.584,294.68 193.781,318.394C196.545,348.222 182.435,347.247 182.435,347.247L131.565,330.74Z" style="fill:rgb(184,56,59);"/>
            </g>
            <g transform="matrix(0.803605,0.584662,-0.584662,0.803605,222.672,-139.466)">
                <path d="M127.675,330.334L171.681,297.227C171.681,297.227 189.48,290.956 193.781,318.394C198.421,347.988 185.139,347.258 185.139,347.258L127.675,330.334Z" style="fill:rgb(184,56,59);"/>
            </g>
            <g transform="matrix(-0.0257988,0.993451,-0.993451,-0.0257988,583.703,-0.207862)">
                <path d="M138.873,334.588C138.873,334.588 173.54,300.5 175.748,299.849C177.956,299.197 193.386,303.149 193.781,318.394C194.357,340.542 184.926,342.536 183.573,342.936C181.183,343.64 138.873,334.588 138.873,334.588Z" style="fill:rgb(184,56,59);"/>
                <path d="M136.399,332.072C136.399,332.072 158.659,310.185 168.697,301.096C170.868,299.129 172.522,297.73 173.337,297.172C173.958,296.746 174.458,296.55 174.75,296.464C175.707,296.181 178.433,296.186 181.728,297.362C188.007,299.604 196.982,305.705 197.309,318.302C197.697,333.25 193.66,339.935 190.339,343.07C187.72,345.54 185.291,346.108 184.571,346.32C184.266,346.41 183.764,346.509 183.07,346.503C182.106,346.495 180.104,346.254 177.441,345.821C165.333,343.856 138.135,338.039 138.135,338.039C136.866,337.767 135.848,336.82 135.485,335.574C135.122,334.327 135.474,332.982 136.399,332.072ZM138.873,334.588C138.873,334.588 181.183,343.64 183.573,342.936C184.926,342.536 194.357,340.542 193.781,318.394C193.386,303.149 177.956,299.197 175.748,299.849C173.54,300.5 138.873,334.588 138.873,334.588Z" style="fill:rgb(243,145,87);"/>
            </g>
            <g transform="matrix(-0.992146,-0.0570756,0.0570756,-0.992146,516.858,547.28)">
                <path d="M143.827,332.776C143.827,332.776 169.188,304.472 171.396,303.821C173.603,303.17 184.566,300.793 191.516,313.848C199.21,328.301 188.549,335.839 187.195,336.238C184.806,336.943 143.827,332.776 143.827,332.776Z" style="fill:rgb(184,56,59);"/>
                <path d="M141.199,330.421C141.199,330.421 157.526,312.203 165.193,304.58C166.924,302.858 168.283,301.636 169.006,301.132C169.587,300.728 170.076,300.531 170.398,300.436C172.018,299.958 177.493,298.709 183.449,301.244C187.27,302.871 191.36,306.045 194.631,312.19C197.527,317.629 198.132,322.254 197.673,326.019C196.946,331.979 193.502,335.942 191.137,337.876C189.797,338.971 188.65,339.488 188.194,339.623C187.609,339.795 185.136,339.887 181.555,339.671C169.797,338.962 143.47,336.287 143.47,336.287C142.149,336.152 141.016,335.288 140.536,334.05C140.057,332.812 140.313,331.41 141.199,330.421ZM143.827,332.776C143.827,332.776 184.806,336.943 187.195,336.238C188.549,335.839 199.21,328.301 191.516,313.848C184.566,300.793 173.603,303.17 171.396,303.821C169.188,304.472 143.827,332.776 143.827,332.776Z" style="fill:rgb(243,145,87);"/>
            </g>
        </g>
    </g>
</svg>
