<?xml version="1.0" encoding="UTF-8" standalone="no"?>
<!DOCTYPE svg PUBLIC "-//W3C//DTD SVG 1.1//EN" "http://www.w3.org/Graphics/SVG/1.1/DTD/svg11.dtd">
<svg width="100%" height="100%" viewBox="0 0 540 540" version="1.1" xmlns="http://www.w3.org/2000/svg" xmlns:xlink="http://www.w3.org/1999/xlink" xml:space="preserve" xmlns:serif="http://www.serif.com/" style="fill-rule:evenodd;clip-rule:evenodd;stroke-linejoin:round;stroke-miterlimit:2;">
    <g id="Pyro-Emblem" serif:id="Pyro Emblem" transform="matrix(1.24424,0,0,1.24424,-65.9447,-65.9447)">
        <g id="Emblem.Circle">
            <g transform="matrix(1.44079,0,0,1.44079,-214.665,-88.8227)">
                <circle cx="336.388" cy="249.046" r="150.612" style="fill:rgb(243,145,87);"/>
            </g>
            <g transform="matrix(2.48837,0,0,2.48837,-435.928,-344.507)">
                <path d="M283.691,164.981C328.931,164.981 365.661,201.71 365.661,246.951C365.661,292.192 328.931,328.922 283.691,328.922C238.45,328.922 201.72,292.192 201.72,246.951C201.72,201.71 238.45,164.981 283.691,164.981ZM283.691,169.34C326.525,169.34 361.301,204.117 361.301,246.951C361.301,289.786 326.525,324.562 283.691,324.562C240.856,324.562 206.08,289.786 206.08,246.951C206.08,204.117 240.856,169.34 283.691,169.34Z" style="fill:rgb(184,56,59);"/>
            </g>
        </g>
        <g transform="matrix(0.993786,0,0,0.993786,1.67778,1.67778)">
            <path d="M116.519,270L122.847,298.883L142.479,308.78L155.134,326.303L174.928,316.081L178.822,322.733L201.375,350.964L271.952,384.387L303.266,400.936L395.26,330.359L401.101,298.072L383.903,274.87L371.609,274.059L379.522,246.152L360.702,223.438L339.285,220.68L341.07,195.856L325.332,180.28L304.24,178.008L297.101,163.082L297.101,157.565L270,143.612L232.364,151.562L198.779,188.23L133.469,230.901L116.519,270Z" style="fill:rgb(184,56,59);"/>
        </g>
        <g transform="matrix(0.993786,0,0,0.993786,1.67778,1.67778)">
            <path d="M170.203,320.803L151.773,280.205L185.158,213.619L194.244,208.816L158.809,280.725L175.683,318.496L170.203,320.803Z" style="fill:rgb(243,145,87);"/>
        </g>
        <g transform="matrix(0.738333,-0.811417,0.910887,0.828844,-222.594,297.632)">
            <rect x="223.237" y="250.271" width="109.111" height="5.679" style="fill:rgb(243,145,87);"/>
        </g>
        <g transform="matrix(0.747628,-0.821631,1.05625,0.961112,-220.697,306.253)">
            <rect x="223.237" y="250.271" width="109.111" height="5.679" style="fill:rgb(243,145,87);"/>
        </g>
        <g transform="matrix(0.763803,-0.839407,1.05625,0.961112,-194.087,356.986)">
            <rect x="223.237" y="250.271" width="109.111" height="5.679" style="fill:rgb(243,145,87);"/>
        </g>
        <g transform="matrix(0.993786,0,0,0.993786,1.67778,1.67778)">
            <path d="M134.254,148.308L150.331,133.273L169.088,167.734L134.254,148.308Z" style="fill:rgb(184,56,59);"/>
        </g>
        <g transform="matrix(-0.0195049,0.993595,-0.993595,-0.0195049,541.602,2.40522)">
            <path d="M134.648,149.417L150.027,132.981L170.34,168.38L134.648,149.417Z" style="fill:rgb(184,56,59);"/>
        </g>
        <g transform="matrix(-0.993781,-0.00299521,0.00299521,-0.993781,539.754,536.673)">
            <path d="M134.648,149.417L150.027,132.981L170.34,168.38L134.648,149.417Z" style="fill:rgb(184,56,59);"/>
        </g>
        <g transform="matrix(0.00326894,-0.993781,0.993781,0.00326894,2.08569,538.816)">
            <path d="M134.648,149.417L151.48,132.561L171.606,169.103L134.648,149.417Z" style="fill:rgb(184,56,59);"/>
        </g>
    </g>
</svg>
