<?xml version="1.0" encoding="UTF-8" standalone="no"?>
<!DOCTYPE svg PUBLIC "-//W3C//DTD SVG 1.1//EN" "http://www.w3.org/Graphics/SVG/1.1/DTD/svg11.dtd">
<svg width="100%" height="100%" viewBox="0 0 540 540" version="1.1" xmlns="http://www.w3.org/2000/svg" xmlns:xlink="http://www.w3.org/1999/xlink" xml:space="preserve" xmlns:serif="http://www.serif.com/" style="fill-rule:evenodd;clip-rule:evenodd;stroke-linejoin:round;stroke-miterlimit:2;">
    <g id="Pyro-Emblem" serif:id="Pyro Emblem" transform="matrix(1.24424,0,0,1.24424,-65.9447,-65.9447)">
        <g id="Emblem.Circle">
            <g transform="matrix(1.44079,0,0,1.44079,-214.665,-88.8227)">
                <circle cx="336.388" cy="249.046" r="150.612" style="fill:rgb(243,145,87);"/>
            </g>
            <g transform="matrix(2.48837,0,0,2.48837,-435.928,-344.507)">
                <path d="M283.691,164.981C328.931,164.981 365.661,201.71 365.661,246.951C365.661,292.192 328.931,328.922 283.691,328.922C238.45,328.922 201.72,292.192 201.72,246.951C201.72,201.71 238.45,164.981 283.691,164.981ZM283.691,169.34C326.525,169.34 361.301,204.117 361.301,246.951C361.301,289.786 326.525,324.562 283.691,324.562C240.856,324.562 206.08,289.786 206.08,246.951C206.08,204.117 240.856,169.34 283.691,169.34Z" style="fill:rgb(184,56,59);"/>
            </g>
        </g>
        <g transform="matrix(0.993786,0,0,0.993786,1.67778,1.67778)">
            <path d="M270,467.821C270,467.821 256.363,473.394 239.517,466.479C228.405,461.918 215.897,449.049 204.984,435.786C183.709,409.928 174.586,377.07 172.837,334.065C171.643,304.701 177.764,267.295 171.59,254.76C167.968,247.407 157.002,234.933 157.002,234.933C157.914,235.469 174.833,237.363 185.999,249.787C197.819,262.939 193.643,269.494 197.678,277.261C199.396,280.568 203.378,282.59 208.021,283.734C208.021,283.734 211.213,268.068 220.716,247.3C234.347,217.506 251.398,175.755 250.663,157.146C249.423,125.76 219.112,100.064 219.112,100.064C220.973,98.203 245.523,108.73 279.384,139.157C301.368,158.913 329.786,193.382 327.882,240.132C326.762,267.659 317.873,309.288 332.242,319.669C338.934,324.503 344.5,323.898 351.007,320.669C356.673,317.858 363.398,309.857 367.106,304.672C375.608,292.779 378.191,267.792 383.255,248.313C385.946,237.959 388.137,232.85 395.873,224.729C392.586,231.016 391.037,255.236 392.674,262.14C395.077,272.277 402.737,299.929 403.512,308.835C405.823,335.418 397.361,392.52 342.889,454.094C319.153,463.666 294.92,471.263 270,467.821Z" style="fill:rgb(185,57,59);"/>
        </g>
    </g>
</svg>
