<?xml version="1.0" encoding="UTF-8" standalone="no"?>
<!DOCTYPE svg PUBLIC "-//W3C//DTD SVG 1.1//EN" "http://www.w3.org/Graphics/SVG/1.1/DTD/svg11.dtd">
<svg width="100%" height="100%" viewBox="0 0 540 540" version="1.1" xmlns="http://www.w3.org/2000/svg" xmlns:xlink="http://www.w3.org/1999/xlink" xml:space="preserve" xmlns:serif="http://www.serif.com/" style="fill-rule:evenodd;clip-rule:evenodd;stroke-linecap:round;stroke-linejoin:round;stroke-miterlimit:1.5;">
    <g id="Scout-Emblem" serif:id="Scout Emblem" transform="matrix(1.24424,0,0,1.24424,-65.9447,-65.9447)">
        <g id="Emlbem.Circle">
            <g transform="matrix(1.44079,0,0,1.44079,-214.665,-88.8227)">
                <circle cx="336.388" cy="249.046" r="150.612" style="fill:rgb(243,145,87);"/>
            </g>
            <g transform="matrix(2.48837,0,0,2.48837,-435.928,-344.507)">
                <path d="M283.691,164.981C328.931,164.981 365.661,201.71 365.661,246.951C365.661,292.192 328.931,328.922 283.691,328.922C238.45,328.922 201.72,292.192 201.72,246.951C201.72,201.71 238.45,164.981 283.691,164.981ZM283.691,169.34C326.525,169.34 361.301,204.117 361.301,246.951C361.301,289.786 326.525,324.562 283.691,324.562C240.856,324.562 206.08,289.786 206.08,246.951C206.08,204.117 240.856,169.34 283.691,169.34Z" style="fill:rgb(184,56,59);"/>
            </g>
        </g>
        <path d="M163.901,408.903C164.609,406.278 168.117,403.234 175.385,399.163C182.654,395.093 189.057,394.104 193.702,391.167C200.251,387.028 212.746,352.138 214.527,345.993C223.623,327.08 231.308,308.921 233.244,301.108C236.697,292.386 246.146,277.303 247.963,275.486C249.78,273.669 247.963,245.685 246.328,238.598C244.692,231.511 239.786,195.167 239.786,195.167L259.048,179.721C259.048,179.721 302.66,160.823 312.291,156.461C321.922,152.1 336.823,147.376 343.183,143.014C349.543,138.653 375.892,122.299 375.892,122.299C375.892,122.299 373.166,139.017 370.259,147.194C367.351,155.371 364.444,163.003 364.444,163.003C364.444,163.003 367.17,165.002 367.17,167.183C367.17,169.363 355.176,200.074 347.544,210.068C339.912,220.063 328.282,232.964 321.195,236.235C314.108,239.506 302.478,242.414 297.39,244.231C292.302,246.048 292.302,248.047 292.302,248.047C292.302,248.047 300.843,251.318 308.293,253.317C315.744,255.316 328.646,265.855 328.646,265.855C328.646,265.855 338.898,281.023 339.916,286.838C340.934,292.653 342.969,298.904 342.969,298.904C342.969,298.904 317.383,311.842 307.498,319.111C297.612,326.38 284.819,339.609 281.767,342.661C278.714,345.714 261.269,368.683 259.088,372.608C256.908,376.534 241.353,392.089 241.353,392.089C241.353,392.089 221.727,403.718 210.388,407.934C199.049,412.15 177.679,415.348 171.137,414.912C164.595,414.476 163.193,411.528 163.901,408.903Z" style="fill:rgb(184,56,59);"/>
        <g transform="matrix(0.994152,-0.107991,0.107991,0.994152,-31.1715,30.7231)">
            <rect x="229.476" y="273.457" width="116.844" height="11.085" style="fill:rgb(243,145,87);"/>
        </g>
        <g transform="matrix(1.25591,0.456407,-0.38262,1.05287,78.9106,-112.028)">
            <rect x="207.182" y="332.981" width="53.095" height="9.086" style="fill:rgb(243,145,87);"/>
        </g>
        <path d="M260.827,261.636C260.491,248.264 259.819,221.521 260.827,210.837C261.285,205.987 262.954,200.424 266.875,197.532C272.783,193.175 286.4,188.796 296.275,184.693C313.193,177.663 349.984,162.791 368.38,155.355" style="fill:none;stroke:rgb(243,145,87);stroke-width:2.9px;"/>
        <path d="M260.347,221.873C295.8,206.4 331.253,190.926 366.706,175.452" style="fill:rgb(184,56,59);stroke:rgb(243,145,87);stroke-width:2.9px;"/>
        <path d="M260.295,235.462C289.345,227.74 318.396,220.017 347.446,212.295" style="fill:rgb(184,56,59);stroke:rgb(243,145,87);stroke-width:2.9px;"/>
    </g>
</svg>
