<?xml version="1.0" encoding="UTF-8" standalone="no"?>
<!DOCTYPE svg PUBLIC "-//W3C//DTD SVG 1.1//EN" "http://www.w3.org/Graphics/SVG/1.1/DTD/svg11.dtd">
<svg width="100%" height="100%" viewBox="0 0 540 540" version="1.1" xmlns="http://www.w3.org/2000/svg" xmlns:xlink="http://www.w3.org/1999/xlink" xml:space="preserve" xmlns:serif="http://www.serif.com/" style="fill-rule:evenodd;clip-rule:evenodd;stroke-linejoin:round;stroke-miterlimit:2;">
    <g id="Pyro-Emblem" serif:id="Pyro Emblem" transform="matrix(1.24424,0,0,1.24424,-65.9447,-65.9447)">
        <g id="Emblem.Circle">
            <g transform="matrix(1.44079,0,0,1.44079,-214.665,-88.8227)">
                <circle cx="336.388" cy="249.046" r="150.612" style="fill:rgb(243,145,87);"/>
            </g>
            <g transform="matrix(2.48837,0,0,2.48837,-435.928,-344.507)">
                <path d="M283.691,164.981C328.931,164.981 365.661,201.71 365.661,246.951C365.661,292.192 328.931,328.922 283.691,328.922C238.45,328.922 201.72,292.192 201.72,246.951C201.72,201.71 238.45,164.981 283.691,164.981ZM283.691,169.34C326.525,169.34 361.301,204.117 361.301,246.951C361.301,289.786 326.525,324.562 283.691,324.562C240.856,324.562 206.08,289.786 206.08,246.951C206.08,204.117 240.856,169.34 283.691,169.34Z" style="fill:rgb(184,56,59);"/>
            </g>
        </g>
        <g transform="matrix(1.53115,0,0,1.53115,-230.18,-142.085)">
            <circle cx="326.669" cy="269.134" r="99.994" style="fill:rgb(243,145,87);"/>
            <path d="M326.669,169.14C381.857,169.14 426.662,213.946 426.662,269.134C426.662,324.321 381.857,369.127 326.669,369.127C271.481,369.127 226.675,324.321 226.675,269.134C226.675,213.946 271.481,169.14 326.669,169.14ZM326.669,176.734C275.672,176.734 234.27,218.137 234.27,269.134C234.27,320.13 275.672,361.533 326.669,361.533C377.665,361.533 419.068,320.13 419.068,269.134C419.068,218.137 377.665,176.734 326.669,176.734Z" style="fill:rgb(184,56,59);"/>
        </g>
        <g transform="matrix(1.16197,0,0,1.16197,-49.6814,-39.1845)">
            <circle cx="275.121" cy="266.088" r="54.069" style="fill:rgb(243,145,87);"/>
            <path d="M275.121,212.018C304.963,212.018 329.191,236.246 329.191,266.088C329.191,295.929 304.963,320.157 275.121,320.157C245.28,320.157 221.052,295.929 221.052,266.088C221.052,236.246 245.28,212.018 275.121,212.018ZM275.121,216.035C247.497,216.035 225.069,238.463 225.069,266.088C225.069,293.712 247.497,316.14 275.121,316.14C302.746,316.14 325.174,293.712 325.174,266.088C325.174,238.463 302.746,216.035 275.121,216.035Z" style="fill:rgb(184,56,59);"/>
        </g>
        <g transform="matrix(0.993786,0,0,0.993786,1.67778,1.67778)">
            <path d="M274.844,263.9L274.844,123.844L262.644,123.844L262.644,263.9L124.005,263.9L124.005,276.1L262.644,276.1L262.644,413.323L274.844,413.323L274.844,276.1L413.483,276.1L413.483,263.9L274.844,263.9Z" style="fill:rgb(184,56,59);"/>
            <path d="M274.844,263.9L413.483,263.9L413.483,276.1L274.844,276.1L274.844,413.323L262.644,413.323L262.644,276.1L124.005,276.1L124.005,263.9L262.644,263.9L262.644,123.844L274.844,123.844L274.844,263.9Z" style="fill:rgb(184,56,59);"/>
        </g>
    </g>
</svg>
