<?xml version="1.0" encoding="UTF-8" standalone="no"?>
<!DOCTYPE svg PUBLIC "-//W3C//DTD SVG 1.1//EN" "http://www.w3.org/Graphics/SVG/1.1/DTD/svg11.dtd">
<svg width="100%" height="100%" viewBox="0 0 540 540" version="1.1" xmlns="http://www.w3.org/2000/svg" xmlns:xlink="http://www.w3.org/1999/xlink" xml:space="preserve" xmlns:serif="http://www.serif.com/" style="fill-rule:evenodd;clip-rule:evenodd;stroke-linejoin:round;stroke-miterlimit:2;">
    <g id="Soldier-Emblem" serif:id="Soldier Emblem" transform="matrix(1.24424,0,0,1.24424,-65.9447,-65.9447)">
        <g id="Emblem.Circle">
            <g transform="matrix(1.44079,0,0,1.44079,-214.665,-88.8227)">
                <circle cx="336.388" cy="249.046" r="150.612" style="fill:rgb(243,145,87);"/>
            </g>
            <g transform="matrix(2.48837,0,0,2.48837,-435.928,-344.507)">
                <path d="M283.691,164.981C328.931,164.981 365.661,201.71 365.661,246.951C365.661,292.192 328.931,328.922 283.691,328.922C238.45,328.922 201.72,292.192 201.72,246.951C201.72,201.71 238.45,164.981 283.691,164.981ZM283.691,169.34C326.525,169.34 361.301,204.117 361.301,246.951C361.301,289.786 326.525,324.562 283.691,324.562C240.856,324.562 206.08,289.786 206.08,246.951C206.08,204.117 240.856,169.34 283.691,169.34Z" style="fill:rgb(184,56,59);"/>
            </g>
        </g>
        <g transform="matrix(-0.715124,-0.623856,0.386009,-0.44248,316.569,589.937)">
            <path d="M297.625,326.795L214.575,326.795L226.311,293.788L285.889,293.788L297.625,326.795Z" style="fill:rgb(184,56,59);"/>
        </g>
        <path d="M244.627,227.489L325.128,294.543L308.773,312.715L229.908,241.481L244.627,227.489Z" style="fill:rgb(184,56,59);"/>
        <path d="M255.038,219.282L335.448,147.731L348.168,148.639L350.894,135.465L369.293,122.063L402.911,150.684L393.598,169.991L383.376,174.988L382.013,193.387L329.997,283.337L255.038,219.282Z" style="fill:rgb(184,56,59);"/>
        <path d="M215.349,291.163L261.52,332.682L232.794,353.965L197.904,323.611L215.349,291.163Z" style="fill:rgb(184,56,59);"/>
        <path d="M190.528,334.937L129.198,408.078L166.677,437.38L225.527,364.693L190.528,334.937Z" style="fill:rgb(184,56,59);"/>
    </g>
</svg>
