<?xml version="1.0" encoding="UTF-8" standalone="no"?>
<!DOCTYPE svg PUBLIC "-//W3C//DTD SVG 1.1//EN" "http://www.w3.org/Graphics/SVG/1.1/DTD/svg11.dtd">
<svg width="100%" height="100%" viewBox="0 0 540 540" version="1.1" xmlns="http://www.w3.org/2000/svg" xmlns:xlink="http://www.w3.org/1999/xlink" xml:space="preserve" xmlns:serif="http://www.serif.com/" style="fill-rule:evenodd;clip-rule:evenodd;stroke-linejoin:round;stroke-miterlimit:2;">
    <g id="Pyro-Emblem" serif:id="Pyro Emblem" transform="matrix(1.24424,0,0,1.24424,-65.9447,-65.9447)">
        <g id="Emblem.Circle">
            <g transform="matrix(1.44079,0,0,1.44079,-214.665,-88.8227)">
                <circle cx="336.388" cy="249.046" r="150.612" style="fill:rgb(243,145,87);"/>
            </g>
            <g transform="matrix(2.48837,0,0,2.48837,-435.928,-344.507)">
                <path d="M283.691,164.981C328.931,164.981 365.661,201.71 365.661,246.951C365.661,292.192 328.931,328.922 283.691,328.922C238.45,328.922 201.72,292.192 201.72,246.951C201.72,201.71 238.45,164.981 283.691,164.981ZM283.691,169.34C326.525,169.34 361.301,204.117 361.301,246.951C361.301,289.786 326.525,324.562 283.691,324.562C240.856,324.562 206.08,289.786 206.08,246.951C206.08,204.117 240.856,169.34 283.691,169.34Z" style="fill:rgb(184,56,59);"/>
            </g>
        </g>
        <g transform="matrix(0.993786,0,0,0.993786,1.67778,1.67778)">
            <path d="M173.492,123.64C199.501,155.625 227.924,188.257 274.856,225.856C280.837,241.625 287.816,256.681 296.02,270.862L309.539,263.012L326.548,282.492L312.737,290.197C343.533,325.591 371.735,361.503 396.327,398.137L358.894,417.763L343.426,420.67L340.722,401.045L275.047,312.36L271.236,311.289L253.968,320.578L246.108,303.071L260.994,293.544C204.007,248.664 175.431,191.779 173.492,123.64Z" style="fill:rgb(184,56,59);"/>
        </g>
    </g>
</svg>
